<svg id="Layer_1" data-name="Layer 1" xmlns="http://www.w3.org/2000/svg" viewBox="0 0 800 800"><polygon points="728.88 583 728.88 194 400 76.5 71.12 194 71.12 583 400 723.5 728.88 583" style="fill:none;stroke:#dea736;stroke-miterlimit:10;stroke-width:7px"/><polygon points="708.1 570.96 708.1 206.53 400 96.45 91.9 206.53 91.9 570.96 400 702.58 708.1 570.96" style="fill:none;stroke:#dea736;stroke-miterlimit:10;stroke-width:7px"/><path d="M173.51,466.72c-17.68,0-28.08-6.76-35.88-15.6-13.78-15.6-13.52-42.63-13.52-79s-.26-63.44,13.52-79c7.8-8.84,18.2-15.6,35.88-15.6,14.3,0,25.22,4.68,33,12.48,9.1,9.36,13.78,22.88,14.3,38.74H191.71c-.26-10.4-2.6-25-18.2-25-7,0-11.18,2.86-13.78,7-5.46,8.84-6.5,27.56-6.5,61.36s1,52.51,6.5,61.35c2.6,4.16,6.76,7,13.78,7,12.48,0,18.2-10.92,18.2-23.65V388h-18.2V364h47.32v51.22C220.83,448.78,201.07,466.72,173.51,466.72Z" style="fill:none;stroke:#dea736;stroke-miterlimit:10;stroke-width:6px"/><path d="M327.68,451.12c-7.8,8.84-18.2,15.6-35.88,15.6s-28.08-6.76-35.88-15.6c-13.78-15.6-13.52-42.63-13.52-79s-.26-63.44,13.52-79c7.8-8.84,18.2-15.6,35.88-15.6s28.08,6.76,35.88,15.6c13.78,15.6,13.52,42.64,13.52,79S341.46,435.52,327.68,451.12ZM305.84,310.73c-2.6-4.16-7-7-14-7s-11.18,2.86-13.78,7c-5.46,8.84-6.5,27.56-6.5,61.36s1,52.51,6.5,61.35c2.6,4.16,6.76,7,13.78,7s11.44-2.86,14-7c5.46-8.84,6.24-27.55,6.24-61.35S311.3,319.57,305.84,310.73Z" style="fill:none;stroke:#dea736;stroke-miterlimit:10;stroke-width:6px"/><path d="M433.14,464.64,409,388.73H392.58v75.91H363.46V279.53h46.8c33.8,0,47.32,16.38,47.32,54.6,0,22.88-4.68,39.26-21.58,48.36l27.56,82.15ZM410.52,305.79H392.58v56.68h17.94c15.6,0,17.94-13,17.94-28.34S426.12,305.79,410.52,305.79Z" style="fill:none;stroke:#dea736;stroke-miterlimit:10;stroke-width:6px"/><path d="M527.94,466.72c-17.68,0-28.08-6.76-35.88-15.6-13.78-15.6-13.52-42.63-13.52-79s-.26-63.44,13.52-79c7.8-8.84,18.2-15.6,35.88-15.6,14.3,0,25.22,4.68,33,12.48,9.1,9.36,13.78,22.88,14.3,38.74H546.14c-.26-10.4-2.6-25-18.2-25-7,0-11.18,2.86-13.78,7-5.46,8.84-6.5,27.56-6.5,61.36s1,52.51,6.5,61.35c2.6,4.16,6.76,7,13.78,7,12.48,0,18.2-10.92,18.2-23.65V388h-18.2V364h47.32v51.22C575.26,448.78,555.5,466.72,527.94,466.72Z" style="fill:none;stroke:#dea736;stroke-miterlimit:10;stroke-width:6px"/><path d="M600.78,464.64V279.53h77.74v26.26H629.9v52.52h41.86v26.26H629.9v53.81h48.62v26.26Z" style="fill:none;stroke:#dea736;stroke-miterlimit:10;stroke-width:6px"/></svg>